<svg viewBox="0 0 611 103" fill="currentColor" xmlns="http://www.w3.org/2000/svg">
<path d="M592.424 37.1257C603.236 37.1257 611 29.3674 611 18.5628C611 7.75832 603.236 0 592.424 0C581.612 0 573.848 7.75832 573.848 18.5628C573.848 29.3674 581.612 37.1257 592.424 37.1257ZM592.424 33.1751C583.946 33.1751 577.897 27.0827 577.945 18.5628C577.897 10.043 583.946 3.95056 592.424 3.95056C600.855 3.95056 606.904 10.043 606.904 18.5628C606.904 27.0827 600.855 33.1751 592.424 33.1751ZM592.472 29.2722C598.188 29.2722 602.141 26.1784 602.522 21.3711H597.187C596.759 23.3701 594.949 24.7029 592.472 24.7029C589.471 24.7029 587.09 22.561 587.09 18.4677C587.09 14.3267 589.471 12.2324 592.472 12.2324C594.901 12.2324 596.711 13.5176 596.997 15.5642H602.665C602.093 10.7569 598.092 7.61553 592.472 7.61553C586.661 7.61553 581.66 11.3757 581.66 18.4677C581.66 25.512 586.518 29.2722 592.472 29.2722Z" fill="currentColor"/>
<path d="M72.5884 101.858H98.8803L61.5858 1.90388H37.2944L0 101.858H26.4348L33.1506 82.2953H65.7297L72.5884 101.858ZM40.438 61.1622L49.4401 35.1742L58.4422 61.1622H40.438Z" fill="currentColor"/>
<path d="M103.052 80.1534V101.858H118.341C136.488 101.858 147.634 91.8623 147.634 70.0153V1.90388H122.199V68.7301C122.199 76.7264 120.342 80.1534 112.626 80.1534H103.052Z" fill="currentColor"/>
<path d="M201.62 103C225.625 103 242.344 90.5772 242.344 63.8752V1.90388H218.909V63.5897C218.909 76.1553 211.479 81.0102 201.62 81.0102C191.617 81.0102 184.33 76.1553 184.33 63.5897V1.90388H160.753V63.8752C160.753 90.5772 177.614 103 201.62 103Z" fill="currentColor"/>
<path d="M319.66 101.858H351.953L313.801 41.1714L348.809 1.90388H317.23L283.222 40.8859V1.90388H257.645V101.858H283.222V75.2985L296.368 60.591L319.66 101.858Z" fill="currentColor"/>
<path d="M361.045 101.858H386.48V42.171L421.774 101.858H448.494V1.90388H423.06V61.5906L387.766 1.90388H361.045V101.858Z" fill="currentColor"/>
<path d="M513.706 103C543.427 103 565.432 81.2958 565.432 51.8808C565.432 22.4658 543.427 0.761553 513.706 0.761553C483.699 0.761553 461.551 22.4658 461.551 51.8808C461.551 81.2958 483.699 103 513.706 103ZM513.563 81.2958C497.988 81.2958 486.986 68.7301 486.986 51.8808C486.986 35.0314 497.988 22.4658 513.563 22.4658C528.995 22.4658 539.998 35.0314 539.998 51.8808C539.998 68.7301 528.995 81.2958 513.563 81.2958Z" fill="currentColor"/>
</svg>
